{"title":"The.Jungle.Book.2016.Complete.HDTS.XVID.AC3.HQ.Hive-CM8","uid":14348189,"size":1483888640,"categoryP":"video","categoryS":"movies","magnet":"?xt=urn:btih:0500dfd75073c7b77b41420f6e76074761a89c90&amp;dn=The.Jungle.Book.2016.Complete.HDTS.XVID.AC3.HQ.Hive-CM8&amp;tr=udp%3A%2F%2Ftracker.leechers-paradise.org%3A6969&amp;tr=udp%3A%2F%2Fzer0day.ch%3A1337&amp;tr=udp%3A%2F%2Fopen.demonii.com%3A1337&amp;tr=udp%3A%2F%2Ftracker.coppersurfer.tk%3A6969&amp;tr=udp%3A%2F%2Fexodus.desync.com%3A6969","seeders":10,"leechers":2,"uploader":".BONE.","files":1,"time":1461004134,"description":"[center][img]http://i.imgur.com/YcUwAH2.jpg[/img]\r\n \r\n \r\n[color=blue][size=4][b]The.Jungle.Book.2016.Complete.HDTS.XVID.AC3.HQ.Hive-CM8[/b][/size][/color]\r\n \r\nThx Hive\r\n \r\nCM8 Doing It Right The First Time\r\n \r\nSources:\r\n \r\nVideo: DVD-R HDCAM\r\nAudio: Exclusive Direct Line + Cadance Line\r\nthx\r\n \r\n \r\nNotes:\r\nhad the source files for nearly 2 weeks, but was stuck with no audio for it,\r\nat least i had time to prepare my video. quality was good, dark scenes were ok but improveable.\r\n \r\nfinally exclusive video+line went up, but 1min was missing in the middle of the movie, which i had now no audio.\r\nalso video looked like a reencode of a reencode even had a watermark in it.\r\n \r\nmine is clean and a lot better quality and has the missing minute inside.\r\nthankfully cadance came up with the missing audio so i can do a full movie now.\r\n \r\n \r\nEncode:\r\nquality on video was already very nice, daylight scenes were bright enough but darker scenes needed more,\r\nso i split the video in pieces and made all dark scenes brighter, very watchable now.\r\n \r\nLine Audio was nice, lipsynced to my video.\r\n \r\ngot very nice and will do me till retail\r\nenjoy\r\n \r\n \r\nVideo: 720x304 @bitrate 1800 2pass\r\nAudio: Line AC3 2.0 Stereo\r\nSample: yes included\r\n \r\n \r\n \r\n[url]http://www.imdb.com/title/tt3040964/[/url]\r\n \r\n \r\nGeneral\r\nComplete name                  : The.Jungle.Book.2016.Complete.HDTS.XVID.AC3.HQ.Hive-CM8.avi\r\nFormat                         : AVI\r\nFormat/Info                    : Audio Video Interleave\r\nFile size                      : 1.38 GiB\r\nDuration                       : 1h 35mn\r\nOverall bit rate               : 2 068 Kbps\r\nWriting application            : Nandub v1.0rc2\r\nWriting library                : Nandub build 1853/release\r\n \r\nVideo\r\nID                             : 0\r\nFormat                         : MPEG-4 Visual\r\nFormat profile                 : Advanced   \r\nFormat settings, BVOP          : 2\r\nFormat settings, QPel          : Yes\r\nFormat settings, GMC           : No warppoints\r\nFormat settings, Matrix        : Default (H.263)\r\nMuxing mode                    : Packed bitstream\r\nCodec ID                       : XVID\r\nCodec ID/Hint                  : XviD\r\nDuration                       : 1h 35mn\r\nBit rate                       : 1 800 Kbps\r\nWidth                          : 720 pixels\r\nHeight                         : 304 pixels\r\nDisplay aspect ratio           : 2.35:1\r\nFrame rate                     : 29.970 fps\r\nColor space                    : YUV\r\nChroma subsampling             : 4:2:0\r\nBit depth                      : 8 bits\r\nScan type                      : Progressive\r\nCompression mode               : Lossy\r\nBits/(Pixel*Frame)             : 0.274\r\nStream size                    : 1.20 GiB (87%)\r\nWriting library                : XviD 1.2.1 (UTC 2008-12-04)\r\n \r\nAudio\r\nID                             : 1\r\nFormat                         : AC-3\r\nFormat/Info                    : Audio Coding 3\r\nMode extension                 : CM (complete main)\r\nFormat settings, Endianness    : Big\r\nCodec ID                       : 2000\r\nDuration                       : 1h 35mn\r\nBit rate mode                  : Constant\r\nBit rate                       : 256 Kbps\r\nChannel(s)                     : 2 channels\r\nChannel positions              : Front: L R\r\nSampling rate                  : 48.0 KHz\r\nBit depth                      : 16 bits\r\nCompression mode               : Lossy\r\nDelay relative to video        : 50ms\r\nStream size                    : 175 MiB (12%)\r\nAlignment                      : Split accross interleaves\r\nInterleave, duration           : 33 ms (1.00 video frame)\r\nInterleave, preload duration   : 500 ms\r\n \r\n \r\n \r\nScreens\r\n \r\n[img]http://i.imgur.com/KMii2tu.png[/img]\r\n[img]http://i.imgur.com/WcpPr4k.png[/img]\r\n[img]http://i.imgur.com/FIUgnYU.png[/img]\r\n[img]http://i.imgur.com/HTZpC5W.png[/img]\r\n[img]http://i.imgur.com/M4Bvn4c.png[/img]\r\n[img]http://i.imgur.com/KV19CiR.png[/img]\r\n \r\n \r\n \r\nPlot\r\n \r\nThe man-cub Mowgli flees the jungle after a threat from the tiger Shere Khan. Guided by Bagheera the panther and the bear Baloo,\r\nMowgli embarks on a journey of self-discovery, though he also meets creatures who don't have his best interests at heart.\r\n \r\n \r\nCast overview, first billed only:\r\n \r\nNeel Sethi              ...     Mowgli\r\nBill Murray             ...     Baloo (voice)\r\nBen Kingsley            ...     Bagheera (voice)\r\nIdris Elba              ...     Shere Khan (voice)\r\nLupita Nyong'o          ...     Raksha (voice)\r\nScarlett Johansson      ...     Kaa (voice)\r\nGiancarlo Esposito      ...     Akela (voice)\r\nChristopher Walken      ...     King Louie (voice)\r\nGarry Shandling         ...     Ikki (voice)\r\nBrighton Rose           ...     Gray (voice)\r\nEmjay Anthony           ...     Young Wolf #1 (voice)\r\nMax Favreau             ...     Young Wolf #2 (voice)\r\nChloe Hechter           ...     Young Wolf #3 (voice)\r\nAsher Blinkoff          ...     Young Wolf #4 (voice)\r\nKnox Gagnon             ...     Young Wolf #5 (voice)\r\n \r\n \r\n \r\nLOOKING FOR ANYTHING YOU WANT TO LOOK AND SOUND BETTER\r\n \r\nCOME FIND US WE DONT BITE[/center]","torrent":{"xt":"urn:btih:0500dfd75073c7b77b41420f6e76074761a89c90","amp;dn":"The.Jungle.Book.2016.Complete.HDTS.XVID.AC3.HQ.Hive-CM8","amp;tr":["udp%3A%2F%2Ftracker.leechers-paradise.org%3A6969","udp%3A%2F%2Fzer0day.ch%3A1337","udp%3A%2F%2Fopen.demonii.com%3A1337","udp%3A%2F%2Ftracker.coppersurfer.tk%3A6969","udp%3A%2F%2Fexodus.desync.com%3A6969"],"infoHash":"0500dfd75073c7b77b41420f6e76074761a89c90","infoHashBuffer":{"type":"Buffer","data":[5,0,223,215,80,115,199,183,123,65,66,15,110,118,7,71,97,168,156,144]},"announce":[],"urlList":[]}}